<?xml version="1.0" encoding="UTF-8"?>
<svg width="14px" height="14px" viewBox="0 0 14 14" version="1.1" xmlns="http://www.w3.org/2000/svg" xmlns:xlink="http://www.w3.org/1999/xlink">
    <!-- Generator: Sketch 55.2 (78181) - https://sketchapp.com -->
    <title>icon_add</title>
    <desc>Created with Sketch.</desc>
    <g id="页面1" stroke="none" stroke-width="1" fill="none" fill-rule="evenodd">
        <g id="首页（缺省）" transform="translate(-163.000000, -620.000000)" fill="#FFFFFF">
            <g id="底部" transform="translate(0.000000, 587.000000)">
                <g id="添加按钮" transform="translate(128.000000, 16.000000)">
                    <g id="icon_add" transform="translate(35.000000, 17.000000)">
                        <path d="M6,6 L6,1 C6,0.44771525 6.44771525,1.01453063e-16 7,0 C7.55228475,-1.01453063e-16 8,0.44771525 8,1 L8,6 L13,6 C13.5522847,6 14,6.44771525 14,7 C14,7.55228475 13.5522847,8 13,8 L8,8 L8,13 C8,13.5522847 7.55228475,14 7,14 C6.44771525,14 6,13.5522847 6,13 L6,8 L1,8 C0.44771525,8 6.76353751e-17,7.55228475 0,7 C-6.76353751e-17,6.44771525 0.44771525,6 1,6 L6,6 Z"></path>
                    </g>
                </g>
            </g>
        </g>
    </g>
</svg>